<?xml version="1.0" standalone="no"?>
<!DOCTYPE svg PUBLIC "-//W3C//DTD SVG 20010904//EN"
 "http://www.w3.org/TR/2001/REC-SVG-20010904/DTD/svg10.dtd">
<svg version="1.0" xmlns="http://www.w3.org/2000/svg"
 width="512.000000pt" height="512.000000pt" viewBox="0 0 512.000000 512.000000"
 preserveAspectRatio="xMidYMid meet">
<metadata>
Created by potrace 1.14, written by Peter Selinger 2001-2017
</metadata>
<g transform="translate(0.000000,512.000000) scale(0.100000,-0.100000)"
fill="#000000" stroke="none">
<path d="M2463 5104 c-48 -18 -127 -84 -148 -124 -31 -59 -29 -126 8 -258 62
-222 44 -256 -180 -352 -56 -23 -114 -55 -128 -70 -35 -36 -45 -87 -35 -163 5
-34 11 -89 15 -122 14 -152 45 -431 50 -460 1 -5 3 -15 3 -21 1 -7 23 -15 50
-18 79 -12 82 -14 77 -49 -2 -18 -7 -77 -10 -132 -3 -55 -8 -145 -12 -200 -12
-161 -8 -294 11 -365 15 -58 68 -176 106 -237 12 -18 10 -38 -14 -145 -16 -67
-30 -166 -33 -218 -5 -101 -5 -103 102 -499 14 -52 25 -107 25 -121 0 -33 -35
-101 -92 -178 -23 -31 -43 -59 -45 -61 -1 -2 -54 -4 -118 -3 l-115 0 0 -174 0
-173 -57 1 c-32 0 -67 0 -78 -1 -20 -1 -20 -8 -20 -481 l0 -480 735 0 735 0 0
474 c0 261 -3 478 -7 482 -5 4 -39 7 -78 7 l-70 -1 0 172 0 171 -116 2 c-63 1
-117 3 -118 5 -1 1 -23 30 -48 63 -59 79 -88 137 -88 177 0 33 20 114 80 328
44 158 45 162 43 275 0 71 -9 139 -30 231 -29 130 -29 132 -10 158 34 47 84
160 102 231 25 102 24 199 -10 653 -3 45 -3 82 2 80 4 -1 34 2 66 6 42 6 57
12 58 25 0 9 2 23 3 31 2 8 7 44 10 80 4 36 9 79 11 95 2 17 7 66 11 110 3 44
8 83 10 87 2 3 7 39 10 79 3 40 9 100 13 134 14 120 -11 149 -189 225 -193 82
-215 127 -159 327 39 140 42 210 11 269 -25 49 -79 98 -130 120 -54 23 -158
27 -209 8z"/>
</g>
</svg>
